<?xml version="1.0" standalone="no"?><!DOCTYPE svg PUBLIC "-//W3C//DTD SVG 1.1//EN" "http://www.w3.org/Graphics/SVG/1.1/DTD/svg11.dtd"><svg t="1719023876144" class="icon" viewBox="0 0 1024 1024" version="1.1" xmlns="http://www.w3.org/2000/svg" p-id="18345" xmlns:xlink="http://www.w3.org/1999/xlink" width="200" height="200"><path d="M1023.36 160.4v703.2c0 91.84-71.84 159.76-159.76 159.76h-703.2c-87.92 0-159.76-67.92-159.76-159.76v-703.2C0.64 72.48 72.48 0.64 160.4 0.64h703.2c87.92 0 159.76 71.84 159.76 159.76z" fill="#739BE9" p-id="18346"></path><path d="M1023.36 703.36v160.24c0 91.84-71.84 159.76-159.76 159.76H448L264 832l72-168-112-120 288-352 511.36 511.36z" fill="#6188D8" p-id="18347"></path><path d="M514.24 192l-3.12 3.12-0.72-0.72L192 514.32l30.32 30.48 42.32-42.48V832h492.4V496.64l44.8 45.04 30.16-30.32L514.24 192z m-73.92 570.88l72.8-144.24H430.56l74.88-150.56h53.44L501.6 575.6h89.36L440.32 762.88z" fill="#FFFFFF" p-id="18348"></path></svg>