<?xml version="1.0" standalone="no"?><!DOCTYPE svg PUBLIC "-//W3C//DTD SVG 1.1//EN" "http://www.w3.org/Graphics/SVG/1.1/DTD/svg11.dtd"><svg t="1719842786885" class="icon" viewBox="0 0 1024 1024" version="1.1" xmlns="http://www.w3.org/2000/svg" p-id="26912" xmlns:xlink="http://www.w3.org/1999/xlink" width="200" height="200"><path d="M244.184615 1022.839467v-50.491077h16.457518c6.133497 0 10.140226 0.241559 12.025436 0.724677a13.422277 13.422277 0 0 1 7.446318 4.988718c1.958728 2.552123 2.935467 5.834174 2.935467 9.851405 0 3.654892-0.840205 6.711138-2.531118 9.179241-1.690913 2.468103-3.796677 4.201026-6.333046 5.198769-2.531118 0.997744-6.889682 1.501867-13.075693 1.501867h-6.711138v19.0464H244.184615z m10.213744-41.952493v14.330749h5.650379c3.801928 0 6.380308-0.220554 7.745641-0.65641 1.365333-0.435856 2.483856-1.223549 3.35557-2.357826a6.669128 6.669128 0 0 0 1.307569-4.185272c0-1.68041-0.45161-3.087754-1.34958-4.237784a6.51159 6.51159 0 0 0-3.334564-2.305313c-1.323323-0.388595-4.122256-0.588144-8.402051-0.588144h-4.972964z m35.026051 17.014154c0-6.012718 1.087015-10.964677 3.266298-14.861128 2.179282-3.885949 5.030728-6.789908 8.543836-8.696123 3.518359-1.906215 7.777149-2.856697 12.786871-2.856698 7.257272 0 13.175467 2.258051 17.744082 6.784657 4.568615 4.521354 6.858174 10.964677 6.858175 19.324718 0 8.444062-2.41559 15.050174-7.257272 19.797333-4.253538 4.201026-10.014195 6.301538-17.302974 6.301539-7.341292 0-13.138708-2.074256-17.381744-6.228021-4.841682-4.75241-7.262523-11.274503-7.262523-19.566277z m10.544575-0.341333c0 5.807918 1.349579 10.166482 4.053989 13.070441 2.699159 2.903959 6.044226 4.358564 10.040452 4.358564 4.022482 0 7.357046-1.444103 10.003692-4.327056 2.641395-2.877703 3.964718-7.304533 3.964718-13.275241 0-5.855179-1.286564-10.187487-3.859692-12.986421-2.573128-2.798933-5.944451-4.201026-10.108718-4.201026-4.164267 0-7.551344 1.417846-10.171734 4.237785-2.615138 2.82519-3.922708 7.194256-3.922707 13.122954z m53.804636 25.279672l-12.114708-50.491077h10.507815l7.598605 34.679466 9.284267-34.679466H381.243077l8.900923 35.26761 7.808656-35.26761h10.292513l-12.319507 50.491077h-10.885908l-10.124472-37.746216-10.045703 37.746216h-11.095958z m59.749087 0v-50.491077h37.641189v8.538584h-27.427446v11.195734h25.484472v8.507077h-25.484472v13.742605h28.356923v8.507077h-38.570666z m47.261538 0v-50.491077h21.561764c5.513846 0 9.452308 0.45161 11.815385 1.360082 2.363077 0.908472 4.306051 2.478605 5.828923 4.720902 1.517621 2.237046 2.273805 4.9152 2.273805 8.039713 0 3.948964-1.155282 7.131241-3.4816 9.54158-2.321067 2.410338-5.618872 3.922708-9.893415 4.542359 2.195036 1.286564 4.006728 2.693908 5.440328 4.22203 1.438851 1.522872 3.392328 4.264041 5.865682 8.213006l6.165005 9.851405h-12.198728l-7.425313-10.985682c-2.672903-3.975221-4.484595-6.459077-5.445579-7.456821a7.903179 7.903179 0 0 0-3.035241-2.069005c-1.071262-0.378092-2.783179-0.567138-5.146257-0.567138h-2.111015v21.078646h-10.213744z m10.213744-29.139364h7.593354c4.642133 0 7.598605-0.16279 8.864164-0.498872 1.260308-0.330831 2.289559-1.002995 3.077251-2.011241 0.787692-1.013497 1.181538-2.357826 1.181538-4.032985 0-1.606892-0.393846-2.898708-1.181538-3.875446a6.017969 6.017969 0 0 0-3.203282-2.011241c-0.960985-0.252062-3.72841-0.383344-8.31278-0.383344h-8.018707v12.813129z m93.084225 10.576082l9.919672 3.135015c-1.549128 5.645128-4.122256 9.772636-7.719384 12.377272-3.602379 2.609887-8.034462 3.912205-13.296247 3.912205-6.611364 0-11.972923-2.079508-16.079425-6.233272-4.726154-4.799672-7.089231-11.274503-7.089231-19.429743 0-8.606851 2.378831-15.344246 7.136492-20.217436 4.132759-4.222031 9.688615-6.333046 16.66757-6.333047 5.681887 0 10.434297 1.585887 14.262482 4.752411 2.730667 2.2528 4.726154 5.592615 5.986461 10.024697l-10.124472 2.410339c-0.645908-2.730667-1.932472-4.831179-3.859692-6.285785a10.975179 10.975179 0 0 0-6.816164-2.189785c-3.738913 0-6.795159 1.333826-9.158236 3.996226-2.363077 2.6624-3.544615 7.062974-3.544615 13.191221 0 6.359303 1.155282 10.885908 3.465846 13.569312 2.305313 2.688656 5.303795 4.027733 8.979692 4.027734 2.70441 0 5.041231-0.850708 7.010462-2.562626 1.969231-1.711918 3.387077-4.426831 4.258789-8.144738z m18.946626 18.563282v-50.076226h10.213744v41.569149h25.489723v8.507077h-35.703467z m40.975754-24.938339c0-6.012718 1.092267-10.964677 3.271549-14.861128 2.179282-3.885949 5.025477-6.789908 8.543835-8.696123s7.777149-2.856697 12.786872-2.856698c7.257272 0 13.170215 2.258051 17.744082 6.784657 4.568615 4.521354 6.858174 10.964677 6.858175 19.324718 0 8.444062-2.420841 15.050174-7.257272 19.797333-4.253538 4.201026-10.019446 6.301538-17.302974 6.301539-7.341292 0-13.138708-2.074256-17.381744-6.228021-4.841682-4.75241-7.262523-11.274503-7.262523-19.566277z m10.549826-0.341333c0 5.807918 1.349579 10.166482 4.048738 13.070441 2.70441 2.903959 6.049477 4.358564 10.045703 4.358564 4.022482 0 7.351795-1.444103 9.998441-4.327056 2.646646-2.877703 3.969969-7.304533 3.969969-13.275241 0-5.855179-1.286564-10.187487-3.864944-12.986421-2.573128-2.798933-5.9392-4.201026-10.103466-4.201026-4.164267 0-7.551344 1.417846-10.171734 4.237785-2.615138 2.82519-3.922708 7.194256-3.922707 13.122954z m46.542112-25.211405h10.213744v27.343425c0 4.253538 0.126031 7.015713 0.378092 8.302277 0.45161 2.226544 1.528123 3.948964 3.229539 5.167262 1.701415 1.218297 3.943713 1.822195 6.732143 1.822195 2.363077 0 4.290297-0.425354 5.776411-1.286564 1.496615-0.86121 2.515364-2.058503 3.061497-3.586626 0.551385-1.522872 0.824451-4.799672 0.824451-9.8304v-27.931569h10.255754v26.518974c0 6.774154-0.446359 11.668349-1.333826 14.687836-0.882215 3.019487-2.882954 5.461333-5.986461 7.336041-3.11401 1.874708-7.21001 2.809436-12.303754 2.809436-5.288041 0-9.415549-0.77719-12.382523-2.326318-2.972226-1.549128-5.12-3.72841-6.459077-6.543097-1.333826-2.814687-2.00599-7.997703-2.00599-15.549047v-26.933825z m51.189498 0h18.694564c4.726154 0 8.286523 0.430605 10.696861 1.291815 2.405087 0.86121 4.621128 2.310564 6.642872 4.358564 2.026995 2.042749 3.618133 4.694646 4.768164 7.955693 1.155282 3.255795 1.732923 7.309785 1.732923 12.156717 0 4.358564-0.609149 8.155241-1.816943 11.379529-1.207795 3.229538-2.741169 5.781662-4.600123 7.666871-1.853703 1.879959-4.096 3.297805-6.726893 4.253539-2.630892 0.950482-6.017969 1.428349-10.150728 1.428349h-19.240697v-50.491077z m10.208492 8.538584v33.445416h7.682626c3.292554 0 5.671385-0.252062 7.152246-0.756185 1.47561-0.509374 2.683405-1.27081 3.623384-2.29481 0.945231-1.018749 1.727672-2.630892 2.347324-4.836431 0.619651-2.205538 0.929477-5.109497 0.929476-8.717128 0-3.738913-0.315077-6.690133-0.950482-8.84841-0.630154-2.153026-1.617395-3.854441-2.956471-5.093744a9.924923 9.924923 0 0 0-4.87319-2.447097c-1.4336-0.299323-4.201026-0.45161-8.31278-0.451611h-4.642133zM231.749579 842.463179h26.891816c8.381046 0 10.912164-3.901703 12.471795-19.298461H220.448821v4.87319c0 12.865641 0.976738 14.420021 11.30601 14.42002z m-73.859282-46.972717h31.959303v-12.471795h-31.959303v12.471795z m31.959303-52.224h-31.959303v13.831876h31.959303v-13.831876z m61.970379 39.752205H220.448821v12.471795h31.37641v-12.471795z m0-39.752205H220.448821v13.831876h31.37641v-13.831876z m29.03959-27.674257v105.235692a95.610092 95.610092 0 0 0 19.098913 7.015713c-3.707405 31.37641-12.477046 43.260062-38.003528 43.260062h-33.907528c-29.816779 0-38.197826-9.352533-38.197826-43.260062v-4.673641h-31.959303v10.906913H128.65641V715.592205h61.19319v-26.50322h30.593969v26.50322h60.416z m225.201231 11.500308V687.917949h-30.205374v39.174564H418.170092v29.034338h56.519549c-3.507856 32.741744-16.762092 71.128615-62.947118 94.517826 7.015713 5.067487 17.733579 16.173949 22.407221 23.189661 53.788882-29.233887 67.820308-77.172841 70.939569-117.707487h48.521846c-2.725415 52.423549-6.427569 76.978544-12.077949 82.628923-2.730667 2.531118-5.067487 3.308308-8.963938 3.308308-5.461333 0-16.373497 0-28.2624-0.971487 5.461333 8.186749 9.552082 21.047138 9.940677 29.428184 11.694605 0.388595 23.777805 0.388595 31.37641-0.976738 9.158236-1.365333 15.396759-3.896451 21.824328-12.277497 8.769641-10.712615 12.477046-40.534646 16.173949-117.119344 0.393846-3.702154 0.588144-13.059938 0.588143-13.059938H506.0608z m360.258954-28.2624h-135.246769v29.233887h135.246769v-29.233887z m20.075651 83.799959v-29.428185h-178.123487v29.428185h48.915692c-10.134974 18.516021-21.435733 34.101826-26.308923 39.174564-6.432821 7.010462-10.329272 10.712615-16.567795 12.466543 3.901703 8.963938 9.357785 25.143138 11.111713 31.570708 11.888903-4.285046 27.474708-5.067487 120.826749-11.689354a260.211528 260.211528 0 0 1 10.523569 20.269949l27.868554-16.961641c-9.940677-18.316472-28.062851-45.596882-44.047754-67.037867l-26.308923 13.642831c4.87319 7.015713 9.940677 14.808615 15.202462 22.606769l-66.260677 3.308308c11.888903-13.831877 24.1664-30.200123 34.495671-47.35081h88.673149zM764.056287 546.868513c77.277867 0 140.146215-62.332718 140.146216-138.959426 0-71.995077-56.708595-132.783918-129.108021-138.387036l-10.187487-0.787692-4.579118-9.063713c-21.651036-42.881969-60.967385-73.796267-107.861333-84.818708l-9.531077-2.237046-3.308308-9.152984c-27.642749-76.322133-101.186954-127.606154-182.996677-127.606154-95.100718 0-175.67639 67.389703-191.587774 160.227118l-2.026995 11.831138-11.799631 2.651898C172.525621 228.273231 117.560451 296.524144 117.560451 376.532677c0 93.924431 77.067815 170.335836 171.795693 170.335836H764.061538z m0 35.866256c-0.556636 0-1.102769-0.021005-1.654154-0.036759l-2.8672 0.031508H289.356144C174.689149 582.734769 81.394872 490.233436 81.394872 376.532677c0-92.905682 61.208944-172.714667 150.275938-197.99959C255.028513 74.389662 347.818667 0 456.635733 0c93.7984 0 178.428062 56.839877 213.574893 142.409518 49.981703 14.320246 92.107487 47.387569 117.749497 92.422564 86.241805 11.678851 152.41321 85.842708 152.41321 173.082256 0 91.871179-71.848041 167.416123-162.752984 174.311057v0.278318l-6.233272 0.078769c-2.431344 0.094523-4.878441 0.147036-7.33079 0.147036z" p-id="26913" fill="#1677ff"></path><path d="M728.972472 319.614031l-18.295467-36.244349a107.992615 107.992615 0 0 0-71.863795-56.556308l-38.145313-8.963938-13.248984-36.580431c-9.87241-27.259405-27.884308-50.065723-50.701128-66.166154 2.137272 23.026872-4.253538 45.644144-10.838647 59.476021L487.539528 250.643692l115.722503-0.33083-144.462769 228.362502L523.552821 295.468636H414.383918l70.608738-140.020185c6.59561-13.847631 12.130462-41.170051-1.050256-55.611077-6.422318-7.020964-16.026913-9.520574-23.678031-10.376533-1.59639-0.052513-3.177026-0.189046-4.783918-0.189046-68.555487 0-126.639918 48.553354-138.108718 115.444184l-8.102728 47.314052-47.193272 10.618092C208.255344 274.747077 170.666667 321.430974 170.666667 376.149333c0 64.259938 52.728123 116.546954 117.544697 116.546954l472.289805-0.2048c1.244554 0.047262 2.478605 0.105026 3.84919 0.194298 46.699651-0.766687 84.456369-38.680944 84.456369-85.160041 0-44.100267-34.737231-81.331856-79.084307-84.766195l-40.749949-3.15077z" p-id="26914" fill="#1677ff"></path></svg>