<svg t="1723209262606" class="icon" viewBox="0 0 1024 1024" version="1.1" xmlns="http://www.w3.org/2000/svg" p-id="12311" width="200" height="200"><path d="M696.32 0L327.68 233.32864v572.49792L696.32 1024z" fill="#E6E9EB" p-id="12312"></path><path d="M484.7616 511.30368l113.37728-109.58848a18.92352 18.92352 0 0 0 0-27.40224 20.54144 20.54144 0 0 0-28.34432 0l-113.3568 109.568a18.92352 18.92352 0 0 0 0 27.42272c7.82336 7.55712 20.50048 7.55712 28.32384 0z" fill="#6D7C8B" p-id="12313"></path><path d="M569.79456 634.18368c7.82336 7.55712 20.52096 7.55712 28.34432 0a18.92352 18.92352 0 0 0 0-27.40224L484.7616 497.19296a20.54144 20.54144 0 0 0-28.32384 0 18.92352 18.92352 0 0 0 0 27.40224l113.3568 109.568z" fill="#6D7C8B" p-id="12314"></path></svg>